<svg width="135" height="59" viewBox="0 0 135 59" fill="none" xmlns="http://www.w3.org/2000/svg">
<path d="M20.8827 58.1968C17.562 58.548 14.5445 58.2838 11.8304 57.4041C9.11623 56.5245 6.81604 55.1427 4.92981 53.2587C3.08561 51.3704 1.72398 49.0976 0.844935 46.4405C0.0130723 43.7367 -0.204546 40.7596 0.19208 37.5091C0.593858 34.2165 1.55322 31.1149 3.07016 28.2044C4.58711 25.2939 6.52265 22.6932 8.8768 20.4025C11.2781 18.0651 13.9565 16.1776 16.9119 14.74C19.9145 13.2557 23.0762 12.338 26.397 11.9868C29.7598 11.6312 32.7772 11.8954 35.4493 12.7795C38.1687 13.6169 40.4504 14.9799 42.2946 16.8682C44.186 18.71 45.5476 20.9827 46.3795 23.6865C47.2165 26.3481 47.4341 29.3252 47.0323 32.6178C46.6357 35.8682 45.6763 38.9698 44.1542 41.9226C42.6373 44.8331 40.6782 47.4571 38.2768 49.7945C35.9227 52.0852 33.2653 53.9705 30.3047 55.4503C27.3442 56.9301 24.2035 57.8456 20.8827 58.1968ZM40.4043 58.8823L22.1467 40.1874L28.5876 33.8185L46.8452 52.5134L40.4043 58.8823ZM21.8615 49.1554C24.5518 48.8709 26.9568 48.0332 29.0767 46.6423C31.1966 45.2514 32.9317 43.4428 34.2822 41.2166C35.6798 38.9437 36.5486 36.4142 36.8886 33.6281C37.1462 31.5175 37.0627 29.6512 36.6382 28.0294C36.2189 26.3653 35.4954 24.9834 34.4678 23.8837C33.4454 22.7418 32.1531 21.941 30.591 21.4811C29.0761 20.9747 27.3098 20.8281 25.2921 21.0415C22.6439 21.3216 20.2599 22.1571 18.14 23.548C16.0253 24.8967 14.2717 26.6864 12.8792 28.9171C11.5339 31.1011 10.6886 33.6072 10.3435 36.4355C10.086 38.5462 10.1669 40.4335 10.5862 42.0976C11.0055 43.7616 11.7264 45.1646 12.7489 46.3065C13.7765 47.4062 15.0477 48.2093 16.5626 48.7158C18.1196 49.2178 19.8859 49.3644 21.8615 49.1554Z" fill="black"/>
<path d="M60.8869 53.9035C58.0706 54.2013 55.639 53.896 53.5923 52.9874C51.5927 52.0322 50.1071 50.6059 49.1353 48.7086C48.1687 46.7691 47.8476 44.4696 48.1721 41.8102L50.351 23.954L59.998 22.9337L57.8346 40.6632C57.7058 41.7186 57.7632 42.6084 58.0068 43.3326C58.2924 44.0525 58.7667 44.5857 59.4298 44.9322C60.0929 45.2788 60.9289 45.3987 61.9377 45.292C63.3669 45.1409 64.5559 44.5776 65.5048 43.6022C66.4588 42.5846 67.0337 41.2738 67.2294 39.6697L69.3929 21.9401L79.0399 20.9199L76.8687 38.7127C76.5391 41.4143 75.6385 43.8639 74.1671 46.0612C72.7009 48.2164 70.8237 49.9983 68.5357 51.407C66.2529 52.7735 63.7033 53.6056 60.8869 53.9035Z" fill="black"/>
<path d="M78.1892 51.3861L81.9442 20.6127L91.5913 19.5925L87.8362 50.3658L78.1892 51.3861ZM87.3169 15.8568C85.8037 16.0169 84.6044 15.6437 83.7192 14.7373C82.8812 13.7842 82.5523 12.5689 82.7326 11.0915C82.9181 9.57179 83.556 8.25427 84.6464 7.13891C85.7789 6.0191 87.1017 5.37917 88.615 5.21913C90.1283 5.05909 91.3065 5.4345 92.1497 6.34537C92.9928 7.25623 93.3217 8.4715 93.1363 9.99117C92.956 11.4686 92.3181 12.7861 91.2225 13.9437C90.132 15.0591 88.8302 15.6968 87.3169 15.8568Z" fill="black"/>
<path d="M90.2177 44.4887L107.975 23.4225L119.702 22.1822L101.945 43.2484L90.2177 44.4887ZM89.5223 50.1875L90.2177 44.4887L97.3841 41.3557L117.246 39.2552L116.257 47.3601L89.5223 50.1875ZM93.4234 27.399L94.4124 19.2941L120.39 16.5467L119.702 22.1822L112.591 25.3718L93.4234 27.399Z" fill="black"/>
<path d="M122.566 30.5672L124.605 1.10029L135.009 0L129.817 29.8003L122.566 30.5672ZM124.081 47.2201C122.442 47.3935 121.145 46.9681 120.191 45.9439C119.238 44.9197 118.859 43.6056 119.054 42.0015C119.26 40.313 119.977 38.8621 121.204 37.649C122.436 36.3937 123.871 35.6793 125.511 35.5059C127.192 35.3281 128.489 35.7535 129.4 36.7821C130.359 37.7641 130.736 39.0993 130.53 40.7878C130.334 42.3919 129.62 43.8217 128.388 45.077C127.198 46.3279 125.763 47.0422 124.081 47.2201Z" fill="black"/>
</svg>
