<svg width="16" height="16" viewBox="0 0 16 16" fill="none" xmlns="http://www.w3.org/2000/svg">
<circle cx="8" cy="8.6958" r="8" fill="white"/>
<path fill-rule="evenodd" clip-rule="evenodd" d="M3.58059 4.36612C4.06875 3.87796 4.86021 3.87796 5.34836 4.36612L8.00001 7.01777L10.6517 4.36612C11.1398 3.87796 11.9313 3.87796 12.4194 4.36612C12.9076 4.85427 12.9076 5.64573 12.4194 6.13388L9.76778 8.78553L12.4194 11.4372C12.9076 11.9253 12.9076 12.7168 12.4194 13.205C11.9313 13.6931 11.1398 13.6931 10.6517 13.205L8.00001 10.5533L5.34836 13.205C4.86021 13.6931 4.06875 13.6931 3.58059 13.205C3.09244 12.7168 3.09244 11.9253 3.58059 11.4372L6.23224 8.78553L3.58059 6.13388C3.09244 5.64573 3.09244 4.85427 3.58059 4.36612Z" fill="#FD910E"/>
</svg>
