<svg width="142" height="68" viewBox="0 0 142 68" fill="none" xmlns="http://www.w3.org/2000/svg">
<path d="M23.8827 62.1968C20.562 62.548 17.5445 62.2838 14.8304 61.4041C12.1162 60.5245 9.81604 59.1427 7.92981 57.2587C6.08561 55.3704 4.72398 53.0976 3.84493 50.4405C3.01307 47.7367 2.79545 44.7596 3.19208 41.5091C3.59386 38.2165 4.55322 35.1149 6.07016 32.2044C7.58711 29.2939 9.52265 26.6932 11.8768 24.4025C14.2781 22.0651 16.9565 20.1776 19.9119 18.74C22.9145 17.2557 26.0762 16.338 29.397 15.9868C32.7598 15.6312 35.7772 15.8954 38.4493 16.7795C41.1686 17.6169 43.4504 18.9799 45.2946 20.8682C47.186 22.71 48.5476 24.9827 49.3795 27.6865C50.2165 30.3481 50.4341 33.3252 50.0323 36.6178C49.6357 39.8682 48.6763 42.9698 47.1542 45.9226C45.6373 48.8331 43.6782 51.4571 41.2768 53.7945C38.9227 56.0852 36.2653 57.9705 33.3047 59.4503C30.3442 60.9301 27.2035 61.8456 23.8827 62.1968ZM43.4043 62.8823L25.1467 44.1874L31.5876 37.8185L49.8452 56.5134L43.4043 62.8823ZM24.8615 53.1554C27.5518 52.8709 29.9568 52.0332 32.0767 50.6423C34.1966 49.2514 35.9317 47.4428 37.2822 45.2166C38.6798 42.9437 39.5486 40.4142 39.8886 37.6281C40.1462 35.5175 40.0627 33.6512 39.6382 32.0294C39.2189 30.3653 38.4954 28.9834 37.4678 27.8837C36.4454 26.7418 35.1531 25.941 33.591 25.4811C32.0761 24.9747 30.3098 24.8281 28.2921 25.0415C25.6439 25.3216 23.2599 26.1571 21.14 27.548C19.0253 28.8967 17.2717 30.6864 15.8792 32.9171C14.5339 35.1011 13.6886 37.6072 13.3435 40.4355C13.086 42.5462 13.1669 44.4335 13.5862 46.0976C14.0055 47.7616 14.7264 49.1646 15.7489 50.3065C16.7765 51.4062 18.0477 52.2093 19.5626 52.7158C21.1196 53.2178 22.8859 53.3644 24.8615 53.1554Z" fill="black"/>
<path d="M63.8869 57.9035C61.0706 58.2013 58.639 57.896 56.5923 56.9874C54.5927 56.0322 53.1071 54.6059 52.1353 52.7086C51.1687 50.7691 50.8476 48.4696 51.1721 45.8102L53.351 27.954L62.998 26.9337L60.8346 44.6632C60.7059 45.7186 60.7632 46.6084 61.0068 47.3326C61.2924 48.0525 61.7667 48.5857 62.4298 48.9322C63.0929 49.2788 63.9289 49.3987 64.9377 49.292C66.3669 49.1409 67.5559 48.5776 68.5048 47.6022C69.4588 46.5846 70.0337 45.2738 70.2294 43.6697L72.3929 25.9401L82.0399 24.9199L79.8687 42.7127C79.5391 45.4143 78.6385 47.8639 77.1671 50.0612C75.7009 52.2164 73.8237 53.9983 71.5357 55.407C69.2529 56.7735 66.7032 57.6056 63.8869 57.9035Z" fill="black"/>
<path d="M81.1892 55.3861L84.9442 24.6127L94.5913 23.5925L90.8362 54.3658L81.1892 55.3861ZM90.3169 19.8568C88.8037 20.0169 87.6044 19.6437 86.7192 18.7373C85.8812 17.7842 85.5523 16.5689 85.7326 15.0915C85.918 13.5718 86.556 12.2543 87.6464 11.1389C88.7789 10.0191 90.1017 9.37917 91.615 9.21913C93.1282 9.05909 94.3065 9.4345 95.1497 10.3454C95.9928 11.2562 96.3217 12.4715 96.1363 13.9912C95.956 15.4686 95.3181 16.7861 94.2225 17.9437C93.132 19.0591 91.8302 19.6968 90.3169 19.8568Z" fill="black"/>
<path d="M93.2177 48.4887L110.975 27.4225L122.702 26.1822L104.945 47.2484L93.2177 48.4887ZM92.5223 54.1875L93.2177 48.4887L100.384 45.3557L120.246 43.2552L119.257 51.3601L92.5223 54.1875ZM96.4234 31.399L97.4124 23.2941L123.39 20.5467L122.702 26.1822L115.591 29.3718L96.4234 31.399Z" fill="black"/>
<path d="M125.566 34.5672L127.605 5.10029L138.009 4L132.817 33.8003L125.566 34.5672ZM127.081 51.2201C125.442 51.3935 124.145 50.9681 123.191 49.9439C122.238 48.9197 121.859 47.6056 122.054 46.0015C122.26 44.313 122.977 42.8621 124.204 41.649C125.436 40.3937 126.871 39.6793 128.511 39.5059C130.192 39.3281 131.489 39.7535 132.4 40.7821C133.359 41.7641 133.736 43.0993 133.53 44.7878C133.334 46.3919 132.62 47.8217 131.388 49.077C130.198 50.3279 128.763 51.0422 127.081 51.2201Z" fill="black"/>
<path fill-rule="evenodd" clip-rule="evenodd" d="M5.79657 59.3682L5.78352 59.3548C3.60158 57.1206 2.01017 54.4461 0.996744 51.3827L0.986841 51.3528L0.97757 51.3227C0.00375038 48.1574 -0.225522 44.7491 0.214164 41.1458C0.659072 37.4997 1.72468 34.0511 3.40981 30.8179C5.07443 27.624 7.20185 24.7656 9.78464 22.2524C12.4082 19.6988 15.3459 17.6261 18.591 16.0465C21.908 14.408 25.4101 13.3917 29.0815 13.0034C32.7728 12.6131 36.2198 12.8873 39.362 13.9215C42.4967 14.8917 45.2049 16.492 47.4145 18.7452C49.2613 20.5509 50.6693 22.6877 51.6493 25.1173L66.4327 23.5538L63.8125 45.0266C63.7335 45.6744 63.7737 46.0658 63.822 46.2745C63.8515 46.287 64.0674 46.3673 64.6222 46.3087C65.3852 46.228 65.9074 45.9618 66.3351 45.5301C66.7778 45.0492 67.1221 44.3669 67.2515 43.3063L69.704 23.2078L85.3902 21.5488C85.1062 21.3378 84.8331 21.0998 84.5729 20.8333L84.5181 20.7772L84.4663 20.7183C82.9644 19.0102 82.4905 16.8935 82.7547 14.7281C83.0215 12.5415 83.9598 10.6184 85.5012 9.04171L85.519 9.02356L85.537 9.00571C87.1293 7.43124 89.0758 6.47095 91.2995 6.23578C93.5163 6.00133 95.7184 6.54363 97.3512 8.30743C98.931 10.0141 99.3793 12.1821 99.1142 14.3546C98.8505 16.5155 97.905 18.4172 96.4013 20.0059L96.3846 20.0236L96.3676 20.0409C96.2363 20.1753 96.1023 20.3051 95.9658 20.4304L123.74 17.4929L124.786 2.3817L141.647 0.598541L135.384 36.5456L131.893 36.9147C132.89 37.2759 133.81 37.8686 134.597 38.7379C136.302 40.5179 136.792 42.8195 136.508 45.1512C136.226 47.4622 135.188 49.4823 133.546 51.1615C131.879 52.9065 129.795 53.9498 127.397 54.2034C125.483 54.4058 123.629 54.0449 122.085 52.9463L121.945 54.0924L77.7545 58.7661L78.4103 53.391C76.9201 55.1813 75.1478 56.7061 73.1086 57.9616L73.0926 57.9715L73.0765 57.9811C70.396 59.5856 67.4236 60.5462 64.2024 60.8869C60.9991 61.2256 58.0142 60.9009 55.3751 59.7294L55.3368 59.7124L55.2991 59.6944C54.3153 59.2244 53.4174 58.6578 52.6119 57.9967L43.3672 67.1381L37.1387 60.7605C36.3305 61.2493 35.4995 61.7071 34.646 62.1337C31.3613 63.7756 27.8729 64.7916 24.1983 65.1802C20.53 65.5681 17.0818 65.2875 13.9054 64.258C10.7732 63.2428 8.05438 61.6232 5.80978 59.3814L5.79657 59.3682ZM34.9807 58.5507C35.8698 58.0392 36.7294 57.4881 37.5593 56.8973L43.4043 62.8823L49.8449 56.5137L44.1117 50.6427C44.741 49.8397 45.3275 49.009 45.8713 48.1506C46.3293 47.4276 46.7569 46.6849 47.1542 45.9226C47.6707 44.9208 48.1223 43.9018 48.5092 42.8657C49.2626 40.848 49.7703 38.7654 50.0323 36.6178C50.2978 34.4424 50.2929 32.4046 50.0175 30.5046C49.8761 29.5289 49.6635 28.5896 49.3795 27.6865C48.5476 24.9827 47.186 22.71 45.2946 20.8682C43.4504 18.9799 41.1686 17.617 38.4493 16.7795C35.7772 15.8954 32.7598 15.6312 29.397 15.9868C26.0762 16.338 22.9145 17.2557 19.9119 18.74C16.9565 20.1776 14.2781 22.0651 11.8768 24.4025C9.52265 26.6932 7.5871 29.2939 6.07016 32.2044C4.55321 35.1149 3.59385 38.2165 3.19208 41.5092C2.79545 44.7596 3.01307 47.7367 3.84493 50.4405C4.72398 53.0976 6.0856 55.3704 7.9298 57.2587C9.81604 59.1427 12.1162 60.5245 14.8304 61.4041C17.5445 62.2838 20.562 62.548 23.8827 62.1968C27.2035 61.8456 30.3442 60.9301 33.3047 59.4503C33.8746 59.1654 34.4333 58.8656 34.9807 58.5507ZM39.1102 41.2276C39.4764 40.0796 39.7359 38.8797 39.8886 37.6281C40.1462 35.5175 40.0627 33.6512 39.6382 32.0294C39.2189 30.3653 38.4954 28.9835 37.4678 27.8838C36.4453 26.7418 35.1531 25.941 33.591 25.4812C32.0761 24.9747 30.3098 24.8281 28.2921 25.0415C25.6439 25.3216 23.2598 26.1571 21.14 27.548C19.0253 28.8967 17.2717 30.6864 15.8792 32.9171C14.5338 35.1011 13.6886 37.6073 13.3435 40.4355C13.086 42.5462 13.1669 44.4335 13.5862 46.0976C14.0055 47.7617 14.7264 49.1646 15.7489 50.3066C16.7765 51.4063 18.0477 52.2094 19.5626 52.7158C21.1196 53.2179 22.8859 53.3644 24.8615 53.1555C26.2641 53.0071 27.5891 52.7084 28.8366 52.2594C29.8377 51.899 30.789 51.4418 31.6903 50.8878L25.1467 44.1874L31.5876 37.8185L37.8478 44.2287C38.3567 43.271 38.7775 42.2707 39.1102 41.2276ZM36.6695 38.7283C36.7693 38.252 36.8497 37.7642 36.9107 37.2648C37.1342 35.4332 37.0427 33.9609 36.736 32.789L36.7325 32.7757L36.7291 32.7625C36.4162 31.5205 35.911 30.6117 35.2758 29.932L35.2541 29.9087L35.2328 29.8849C34.606 29.1849 33.8056 28.6716 32.7438 28.3591L32.6915 28.3437L32.6397 28.3264C31.6267 27.9877 30.3095 27.8449 28.6076 28.0249C26.4097 28.2573 24.4861 28.9406 22.7857 30.0563L22.7695 30.0669L22.7531 30.0774C21.0358 31.1727 19.5955 32.6313 18.4288 34.4981C17.3368 36.2734 16.6196 38.3554 16.3214 40.7989C16.0983 42.6275 16.1849 44.1329 16.4953 45.3645C16.8069 46.6013 17.3117 47.5464 17.9627 48.2816C18.6217 48.9793 19.4461 49.5111 20.4984 49.8654C21.5782 50.2109 22.9071 50.3454 24.546 50.1721C25.2153 50.1013 25.8576 49.9905 26.4743 49.8405L20.9174 44.1505L31.6248 33.5628L36.6695 38.7283ZM51.1721 45.8102C50.8476 48.4696 51.1687 50.7691 52.1353 52.7086C53.1071 54.6059 54.5927 56.0322 56.5923 56.9874C58.639 57.896 61.0706 58.2014 63.8869 57.9035C66.7032 57.6056 69.2528 56.7735 71.5357 55.407C73.8237 53.9983 75.7009 52.2164 77.1671 50.0612C78.2068 48.5086 78.9615 46.8301 79.4311 45.0256C79.6261 44.2764 79.772 43.5054 79.8687 42.7127L82.0399 24.9199L72.3928 25.9402L70.2294 43.6697C70.0337 45.2738 69.4588 46.5846 68.5048 47.6022C67.5559 48.5776 66.3669 49.1409 64.9377 49.292C63.9289 49.3987 63.0929 49.2788 62.4298 48.9322C61.7667 48.5857 61.2924 48.0525 61.0068 47.3327C60.7632 46.6084 60.7058 45.7186 60.8346 44.6633L62.998 26.9338L53.351 27.954L51.1721 45.8102ZM48.2142 50.0546C48.15 50.1537 48.0852 50.2524 48.02 50.3507L48.3152 50.653C48.2774 50.4549 48.2437 50.2554 48.2142 50.0546ZM81.1891 55.3861L90.8362 54.3658L94.5912 23.5925L84.9442 24.6127L81.1891 55.3861ZM96.2911 34.4297L95.4696 41.1624L101.62 33.8662L96.2911 34.4297ZM108.719 30.0987L93.2177 48.4887L92.5223 54.1875L119.257 51.3601L120.246 43.2552L107.143 44.6409L122.702 26.1822L123.39 20.5467L97.4124 23.2941L96.4234 31.399L108.719 30.0987ZM122.827 30.6892L114.243 40.8733L121.543 40.1012C121.713 39.9068 121.892 39.7169 122.078 39.5318C122.803 38.7956 123.599 38.1814 124.461 37.7008L122.326 37.9266L122.827 30.6892ZM124.204 41.649C123.881 41.9683 123.593 42.3041 123.341 42.6564C123.132 42.9481 122.947 43.251 122.787 43.5653C122.405 44.3134 122.161 45.1255 122.054 46.0015C121.91 47.1834 122.078 48.2078 122.558 49.0749C122.729 49.3846 122.94 49.6743 123.191 49.9439C124.145 50.9681 125.442 51.3935 127.081 51.2201C128.763 51.0423 130.198 50.3279 131.388 49.077C132.62 47.8217 133.334 46.3919 133.53 44.7878C133.736 43.0993 133.359 41.7641 132.4 40.7821C131.489 39.7535 130.192 39.3281 128.511 39.5059C126.871 39.6793 125.436 40.3937 124.204 41.649ZM125.566 34.5672L132.817 33.8003L138.009 4.00001L127.605 5.1003L125.566 34.5672ZM86.7192 18.7373C87.6044 19.6437 88.8037 20.0169 90.3169 19.8568C91.8302 19.6968 93.132 19.0591 94.2225 17.9437C95.318 16.7862 95.956 15.4686 96.1363 13.9912C96.3217 12.4715 95.9928 11.2562 95.1496 10.3454C94.3065 9.43451 93.1282 9.0591 91.615 9.21914C90.1017 9.37918 88.7789 10.0191 87.6464 11.1389C86.556 12.2543 85.918 13.5718 85.7326 15.0915C85.5523 16.5689 85.8812 17.7842 86.7192 18.7373Z" fill="white"/>
</svg>
